# xmcd CD database file
#
# Track frame offsets:
#	150
#	15996
#	29609
#	46367
#	58935
#	70067
#	83516
#	95428
#	108810
#	124839
#	139037
#	153499
#	162689
#	179003
#	193459
#	206406
#	221915
#	233725
#	247687
#	263010
#	278050
#	291327
#	304942
#	316528
#	331274
#
# Disc length: 4587 seconds
#
# Revision: 0
# Processed by: cddbd v1.5.2PL0 Copyright (c) Steve Scherf et al.
# Submitted via: CDex 1.51
#
DISCID=6911e919
DTITLE=Billie Holiday - The Great American Songbook - cd 1
DYEAR=2007
DGENRE=Jazz
TTITLE0=Blue Moon
TTITLE1=Easy to Love
TTITLE2=Autumn in New York
TTITLE3=If the Mood Turns Green
TTITLE4=What a Little Moonlight Can Do
TTITLE5=How Deep is the Ocean (How High is the Sky)
TTITLE6=Love Me or Leave Me
TTITLE7=I Only Have Eyes For You
TTITLE8=Solitude
TTITLE9=I Cried For You
TTITLE10=Willow Weep For Me
TTITLE11=Blue Turning Grey Over You
TTITLE12=P.S. I Love You
TTITLE13=Easy Living
TTITLE14=Them There Eyes
TTITLE15=You're My Thrill
TTITLE16=Remember
TTITLE17=Crazy He Calls Me
TTITLE18=Ain't Nobody's Business If I Do
TTITLE19=Now or Never
TTITLE20=Somebody's On My Mind
TTITLE21=There Is No Greater Love
TTITLE22=Big Stuff
TTITLE23=Keeps On Rainin'
TTITLE24=Yesterdays
EXTD=YEAR: 2007
EXTT0=
EXTT1=
EXTT2=
EXTT3=
EXTT4=
EXTT5=
EXTT6=
EXTT7=
EXTT8=
EXTT9=
EXTT10=
EXTT11=
EXTT12=
EXTT13=
EXTT14=
EXTT15=
EXTT16=
EXTT17=
EXTT18=
EXTT19=
EXTT20=
EXTT21=
EXTT22=
EXTT23=
EXTT24=
PLAYORDER=
